UNKNOWN
version=1
nRows=36
nColumns=13
inDegrees=no
endheader
time	time	pelvis_tilt	hip_flexion_r	knee_angle_r	ankle_angle_r	pelvis_tilt	hip_flexion_r	knee_angle_r	ankle_angle_r	hip_flexion_l	knee_angle_l	ankle_angle_l
    176.00000000	      6.13000000	     -4.31585446	    -28.03348848	      1.11771815	      5.19977165	     -4.31585446	    -28.03348848	      1.11771815	      5.19977165	     10.00834095	    -19.86874125	      0.99191360
    177.00000000	      6.14000000	     -4.73274044	    -29.58473767	      1.67982851	      5.39921167	     -4.73274044	    -29.58473767	      1.67982851	      5.39921167	      9.16614294	    -15.04532380	      1.39745604
    178.00000000	      6.15000000	     -5.10753251	    -31.11474144	      2.14213759	      5.62022808	     -5.10753251	    -31.11474144	      2.14213759	      5.62022808	      8.23589317	    -10.28975101	      1.59160825
    179.00000000	      6.16000000	     -5.46893320	    -32.53196882	      2.40000741	      5.86399629	     -5.46893320	    -32.53196882	      2.40000741	      5.86399629	      7.26420332	     -5.75353907	      1.59641161
    180.00000000	      6.17000000	     -5.89577396	    -33.71777620	      2.24718504	      6.23803447	     -5.89577396	    -33.71777620	      2.24718504	      6.23803447	      6.27408964	     -1.62013208	      1.45179263
    181.00000000	      6.18000000	     -6.46456652	    -34.64030812	      1.65668160	      6.64293388	     -6.46456652	    -34.64030812	      1.65668160	      6.64293388	      5.28930011	      1.89817121	      1.18592854
    182.00000000	      6.19000000	     -7.27555232	    -35.21620058	      0.47457073	      7.10727654	     -7.27555232	    -35.21620058	      0.47457073	      7.10727654	      4.34001970	      4.55136941	      0.89095655
    183.00000000	      6.20000000	     -8.29504753	    -35.49209043	     -1.25734986	      7.56584854	     -8.29504753	    -35.49209043	     -1.25734986	      7.56584854	      3.45511174	      6.14694776	      0.70015913
    184.00000000	      6.21000000	     -7.56985187	    -36.29602181	     -1.88709185	      7.86180925	     -7.56985187	    -36.29602181	     -1.88709185	      7.86180925	      3.43120757	      6.94209862	      0.79433386
    185.00000000	      6.22000000	     -6.53073764	    -36.88018373	     -2.70805165	      8.10469770	     -6.53073764	    -36.88018373	     -2.70805165	      8.10469770	      3.72828245	      6.73595963	      0.96684216
    186.00000000	      6.23000000	     -6.76116005	    -36.68412059	     -4.96234800	      8.34799819	     -6.76116005	    -36.68412059	     -4.96234800	      8.34799819	      3.67966097	      5.47711678	      0.96100705
    187.00000000	      6.24000000	     -6.63192291	    -36.47679569	     -7.23214563	      8.38666828	     -6.63192291	    -36.47679569	     -7.23214563	      8.38666828	      3.72316872	      3.75724319	      0.68960376
    188.00000000	      6.25000000	     -6.34384385	    -36.12586139	     -9.58878463	      8.14949603	     -6.34384385	    -36.12586139	     -9.58878463	      8.14949603	      3.93485870	      1.79793800	      0.06699533
    189.00000000	      6.26000000	     -5.87419309	    -35.77220654	    -11.99369800	      7.55713408	     -5.87419309	    -35.77220654	    -11.99369800	      7.55713408	      4.05910441	     -0.05197312	     -1.13441855
    190.00000000	      6.27000000	     -5.33296671	    -35.30558222	    -14.58707063	      6.58371599	     -5.33296671	    -35.30558222	    -14.58707063	      6.58371599	      4.04960515	     -1.60528403	     -2.92107807
    191.00000000	      6.28000000	     -4.71646263	    -34.69542613	    -17.39682601	      5.13290465	     -4.71646263	    -34.69542613	    -17.39682601	      5.13290465	      3.85772250	     -2.87441428	     -4.98758518
    192.00000000	      6.29000000	     -3.99333497	    -33.86028121	    -20.49019154	      3.17883801	     -3.99333497	    -33.86028121	    -20.49019154	      3.17883801	      3.56510349	     -4.00263477	     -6.91808131
    193.00000000	      6.30000000	     -3.14464935	    -32.71244217	    -23.90765783	      0.65132369	     -3.14464935	    -32.71244217	    -23.90765783	      0.65132369	      3.30048424	     -5.22527534	     -8.20821617
    194.00000000	      6.31000000	     -2.16965234	    -31.21745738	    -27.62836409	     -2.47258833	     -2.16965234	    -31.21745738	    -27.62836409	     -2.47258833	      3.18958105	     -6.72469370	     -8.63202722
    195.00000000	      6.32000000	     -1.11483346	    -29.41215905	    -31.56494178	     -6.14983896	     -1.11483346	    -29.41215905	    -31.56494178	     -6.14983896	      3.25381039	     -8.52703925	     -8.21100846
    196.00000000	      6.33000000	     -0.11533043	    -27.40064545	    -35.51823535	    -10.39356457	     -0.11533043	    -27.40064545	    -35.51823535	    -10.39356457	      3.44162902	    -10.51657341	     -7.20493304
    197.00000000	      6.34000000	      0.74597117	    -25.34697523	    -39.32454181	    -14.96379101	      0.74597117	    -25.34697523	    -39.32454181	    -14.96379101	      3.52518341	    -12.45368191	     -5.81632473
    198.00000000	      6.35000000	      1.42939018	    -23.28985214	    -42.87785492	    -19.47509813	      1.42939018	    -23.28985214	    -42.87785492	    -19.47509813	      3.42990441	    -14.14561296	     -4.26279434
    199.00000000	      6.36000000	      1.88598279	    -21.49928055	    -46.05608172	    -23.42028136	      1.88598279	    -21.49928055	    -46.05608172	    -23.42028136	      2.86250014	    -15.40102310	     -2.72031653
    200.00000000	      6.37000000	      2.15938907	    -19.72245775	    -48.95218344	    -26.22704644	      2.15938907	    -19.72245775	    -48.95218344	    -26.22704644	      2.06075000	    -16.21496970	     -1.30242028
    201.00000000	      6.38000000	      2.28228542	    -17.97864161	    -51.57304968	    -27.50691358	      2.28228542	    -17.97864161	    -51.57304968	    -27.50691358	      1.03033555	    -16.57781781	     -0.10441203
    202.00000000	      6.39000000	      2.29292303	    -16.18955958	    -53.90895674	    -27.21486543	      2.29292303	    -16.18955958	    -53.90895674	    -27.21486543	     -0.11593567	    -16.51456078	      0.81535315
    203.00000000	      6.40000000	      2.21714732	    -14.36238657	    -55.92842149	    -25.66494185	      2.21714732	    -14.36238657	    -55.92842149	    -25.66494185	     -1.32976989	    -16.11736816	      1.39893857
    204.00000000	      6.41000000	      2.10731987	    -12.39243324	    -57.64072969	    -23.29049050	      2.10731987	    -12.39243324	    -57.64072969	    -23.29049050	     -2.46694432	    -15.48632581	      1.78595145
    205.00000000	      6.42000000	      1.99278292	    -10.37685682	    -59.01401684	    -20.63785784	      1.99278292	    -10.37685682	    -59.01401684	    -20.63785784	     -3.60586475	    -14.65460781	      1.96512354
    206.00000000	      6.43000000	      1.84862592	     -8.33334981	    -60.06600815	    -18.08229916	      1.84862592	     -8.33334981	    -60.06600815	    -18.08229916	     -4.73608627	    -13.72783497	      2.04951862
    207.00000000	      6.44000000	      1.68943940	     -6.29811341	    -60.78363254	    -15.84828453	      1.68943940	     -6.29811341	    -60.78363254	    -15.84828453	     -5.84603460	    -12.75381771	      2.09635925
    208.00000000	      6.45000000	      1.50068300	     -4.29452134	    -61.17963527	    -14.00474667	      1.50068300	     -4.29452134	    -61.17963527	    -14.00474667	     -6.91002733	    -11.80920770	      2.15454030
    209.00000000	      6.46000000	      1.29450425	     -2.39996412	    -61.23608732	    -12.44573672	      1.29450425	     -2.39996412	    -61.23608732	    -12.44573672	     -7.98169916	    -10.89051704	      2.24768504
    210.00000000	      6.47000000	      1.05913535	     -0.69904251	    -60.94378588	    -11.04064955	      1.05913535	     -0.69904251	    -60.94378588	    -11.04064955	     -9.11893285	     -9.99861769	      2.40672848
    211.00000000	      6.48000000	      0.78636619	      0.86634201	    -60.31164659	     -9.70584297	      0.78636619	      0.86634201	    -60.31164659	     -9.70584297	    -10.21739211	     -9.18627954	      2.61570108
